<?xml version="1.0" encoding="utf-8"?>
<!-- Generator: Adobe Illustrator 26.2.1, SVG Export Plug-In . SVG Version: 6.00 Build 0)  -->
<svg version="1.1"
	 id="icon-logo" xmlns:cc="http://creativecommons.org/ns#" xmlns:dc="http://purl.org/dc/elements/1.1/" xmlns:inkscape="http://www.inkscape.org/namespaces/inkscape" xmlns:rdf="http://www.w3.org/1999/02/22-rdf-syntax-ns#" xmlns:sodipodi="http://sodipodi.sourceforge.net/DTD/sodipodi-0.dtd" xmlns:svg="http://www.w3.org/2000/svg"
	 xmlns="http://www.w3.org/2000/svg" xmlns:xlink="http://www.w3.org/1999/xlink" x="0px" y="0px" viewBox="0 0 320.8 378"
	 style="enable-background:new 0 0 320.8 378;" xml:space="preserve">
<style type="text/css">
	.st0{fill:#FF7300;}
	.st1{fill:#FFFFFF;}
</style>
<sodipodi:namedview  bordercolor="#666666" borderopacity="1" gridtolerance="10" guidetolerance="10" id="namedview13" inkscape:current-layer="icon-logo" inkscape:cx="328.06846" inkscape:cy="368.05058" inkscape:pageopacity="0" inkscape:pageshadow="2" inkscape:window-height="837" inkscape:window-maximized="1" inkscape:window-width="1600" inkscape:window-x="-8" inkscape:window-y="-8" inkscape:zoom="0.65748032" objecttolerance="10" pagecolor="#ffffff" showgrid="false">
	</sodipodi:namedview>
<g>
	<path id="logo-Fill-42" inkscape:connector-curvature="0" class="st0" d="M274.5,120.8l-23.5-87L4.1,99.6l23.5,87l0,0
		c14.8,3.1,27.4,14,31.3,29.7s-1.6,31.3-12.6,40.8l0,0l23.5,87l246.9-65.8l-23.5-87c-14.8-3.1-27.4-14-31.3-29.7
		C258,145.8,262.7,130.9,274.5,120.8"/>
	
		<path id="path8" inkscape:connector-curvature="0" inkscape:export-filename="C:\Users\suitedoalex\sites\ingresso-com-logo-4.png" inkscape:export-xdpi="73.567451" inkscape:export-ydpi="73.567451" class="st1" d="
		M192.2,109.8c0,18-14.1,32.1-32.1,32.1S128,127,128,109.8c0-18,14.1-32.1,32.1-32.1C178.1,76.9,192.2,91.8,192.2,109.8"/>
	
		<path id="path10" inkscape:connector-curvature="0" inkscape:export-filename="C:\Users\suitedoalex\sites\ingresso-com-logo-4.png" inkscape:export-xdpi="73.567451" inkscape:export-ydpi="73.567451" class="st1" d="
		M189.8,156.1H131v123c0,9.4,6.3,16.5,14.9,16.5h43.9V156.1z"/>
</g>
</svg>
