<?xml version="1.0" encoding="utf-8"?>
<!-- Generator: Adobe Illustrator 26.2.1, SVG Export Plug-In . SVG Version: 6.00 Build 0)  -->
<svg version="1.1"
	 id="icon-logo" xmlns:cc="http://creativecommons.org/ns#" xmlns:dc="http://purl.org/dc/elements/1.1/" xmlns:inkscape="http://www.inkscape.org/namespaces/inkscape" xmlns:rdf="http://www.w3.org/1999/02/22-rdf-syntax-ns#" xmlns:sodipodi="http://sodipodi.sourceforge.net/DTD/sodipodi-0.dtd" xmlns:svg="http://www.w3.org/2000/svg"
	 xmlns="http://www.w3.org/2000/svg" xmlns:xlink="http://www.w3.org/1999/xlink" x="0px" y="0px" viewBox="0 0 2000 378"
	 style="enable-background:new 0 0 2000 378;" xml:space="preserve">
<style type="text/css">
	.st0{fill:#FF7300;}
	.st1{fill:#3478C1;}
	.st2{fill:#FFFFFF;}
</style>
<sodipodi:namedview  bordercolor="#666666" borderopacity="1" gridtolerance="10" guidetolerance="10" id="namedview13" inkscape:current-layer="icon-logo" inkscape:cx="328.06846" inkscape:cy="368.05058" inkscape:pageopacity="0" inkscape:pageshadow="2" inkscape:window-height="837" inkscape:window-maximized="1" inkscape:window-width="1600" inkscape:window-x="-8" inkscape:window-y="-8" inkscape:zoom="0.65748032" objecttolerance="10" pagecolor="#ffffff" showgrid="false">
	</sodipodi:namedview>
<g>
	
		<g id="logo-header" transform="matrix(2.0623072,0,0,2.0623072,89.015024,307.10401)" inkscape:export-filename="C:\Users\suitedoalex\sites\ingresso-com-logo-4.png" inkscape:export-xdpi="73.567451" inkscape:export-ydpi="73.567451">
		<g id="logo-logo-completo" transform="translate(10,11)">
			<path id="logo-Fill-42" inkscape:connector-curvature="0" class="st0" d="M81.9-101.3l-11.4-42.2l-119.7,31.9l11.4,42.2l0,0
				c7.2,1.5,13.3,6.8,15.2,14.4s-0.8,15.2-6.1,19.8l0,0L-17.3,7l119.7-31.9L91-67.1c-7.2-1.5-13.3-6.8-15.2-14.4
				C73.9-89.2,76.2-96.4,81.9-101.3"/>
			<path id="logo-Combined-Shape" inkscape:connector-curvature="0" class="st1" d="M133.6-25.7h17.1v-64.6h-17.1V-25.7z
				 M131.7-107.8c0-5.7,4.6-9.9,10.3-9.9c5.7,0,10.3,4.6,10.3,9.9c0,5.7-4.6,10.3-10.3,10.3C136.3-97.5,131.7-102.1,131.7-107.8z
				 M207.7-33.7v-31.2c0-6.8-0.4-11.4-11.8-11.4c-6.8,0-14.4,4.2-14.8,8.7v41.8H164v-64.6h17.1v5.7c4.2-4.9,15.6-7.6,22.8-7.2
				c14.4,1.1,21.3,8,21.3,20.5v45.6h-9.5C211.1-25.7,207.7-29.5,207.7-33.7 M317.9-25.7v-64.6H335v6.5c4.6-5.7,12.5-8,20.5-8v16.7
				c-1.1-0.4-2.7-0.4-4.6-0.4c-5.7,0-13.3,4.2-16,8.4v41.4H317.9z M395.1-78.1c-10.6,0-15.2,7.2-16,13.7H411
				C410.6-70.5,406.5-78.1,395.1-78.1 M361.2-58c0-18.6,14.1-33.8,33.4-33.8c18.2,0,30.8,12.9,32.3,31.9c0,5.7-5.3,7.6-7.6,7.6
				h-40.3c1.1,8,7.6,14.4,18.6,14.4c5.3,0,12.9-2.3,17.1-6.5l7.6,11.4c-6.5,6.1-16.7,9.1-26.6,9.1C376.4-24.2,361.2-37.5,361.2-58
				 M431.9-34.1l7.2-12.2c4.9,4.6,14.4,9.1,22.4,9.1c7.2,0,11-2.7,11-6.8c0-10.6-38.4-1.9-38.4-27.4c0-11,9.5-20.5,26.6-20.5
				c11,0,19.8,3.8,26.2,8.7l-7.2,11.8c-3.8-4.2-11.4-7.6-19.4-7.6c-6.1,0-10.3,2.7-10.3,6.5c0,9.5,38.4,1.5,38.4,27.7
				c0,11.8-10.3,20.5-28.1,20.5C449.8-24.2,438.8-28,431.9-34.1 M494.6-34.1l7.2-12.2c4.9,4.6,14.4,9.1,22.4,9.1
				c7.2,0,11-2.7,11-6.8c0-10.6-38.4-1.9-38.4-27.4c0-11,9.5-20.5,26.6-20.5c11,0,19.8,3.8,26.2,8.7l-6.8,11.8
				c-3.8-4.2-11.4-7.6-19.4-7.6c-6.1,0-10.3,2.7-10.3,6.5c0,9.5,38.4,1.5,38.4,27.7c0,11.8-10.3,20.5-28.1,20.5
				C512.5-24.2,501.5-28,494.6-34.1 M638.3-35.2c0-6.1,4.9-11,11-11c6.1,0,11,4.9,11,11s-4.9,11-11,11
				C643.2-24.2,638.3-29.1,638.3-35.2 M671-58c0-19.8,14.4-33.8,34.6-33.8c13.3,0,21.3,5.7,25.8,11.8l-11,10.3
				c-3-4.6-7.6-6.8-13.7-6.8c-10.3,0-17.5,7.6-17.5,18.6c0,11.4,7.2,19,17.5,19c6.1,0,10.6-2.7,13.7-7.2l11,10.3
				c-4.2,5.7-12.5,11.8-25.8,11.8C685.4-24.2,671-38.2,671-58 M895.5-33.7v-33.1c0-6.1-2.7-10.3-9.5-10.3c-6.1,0-11.8,4.9-13.7,9.1
				v42.2h-9.5c-3.4,0-7.6-3-7.6-7.6v-33.1c0-6.1-2.7-10.3-9.5-10.3c-6.1,0-12.2,4.9-13.7,9.1v42.2H815v-65h17.1v6.1
				c2.7-3.8,11.4-7.6,21.3-7.6c9.5,0,15.6,2.3,17.9,9.5c3.8-5.7,12.5-9.5,22.4-9.5c11.8,0,19,6.5,19,19.4v46.7h-9.5
				C900.5-25.7,895.5-28.7,895.5-33.7 M613.6-57.6c-0.4,4.6-2.3,8.7-4.9,11.8c-0.4,0.4-0.8,0.8-1.1,1.1c-3.4,3-8,5.3-13.3,5.3
				c-10.6,0-19.4-8.7-19.4-19s8.7-19,19.4-19c10.3,0,18.6,8,19,17.9v1.9H613.6z M594.2-92.6c-20.1,0-35,13.7-35,33.4
				s14.8,33.4,35,33.4s35-13.7,35-33.4C629.2-78.5,614.3-92.6,594.2-92.6z M789.1-57.6c-0.4,4.6-2.3,8.7-4.9,11.8
				c-0.4,0.4-0.8,0.8-1.1,1.1c-3.4,3-8,5.3-13.3,5.3c-10.6,0-19.4-8.7-19.4-19s8.7-19,19.4-19c10.3,0,18.6,8,19,17.9v1.9H789.1z
				 M769.8-92.6c-20.1,0-35,13.7-35,33.4s15.2,33.4,35,33.4s35-13.7,35-33.4C804.7-78.5,789.9-92.6,769.8-92.6z M283.7-45.1
				L283.7-45.1C283.7-44.7,283.7-44.7,283.7-45.1c-3.8,4.2-8.7,6.5-14.4,6.5c-2.7,0-5.3-0.8-7.6-1.5c-6.8-3-11.8-9.9-11.8-17.5
				c0-10.6,8.7-19,19.4-19c5.3,0,9.9,2.3,13.3,5.7c0.4,0.4,0.4,0.4,0.8,0.8c0.4,0.4,0.8,1.1,1.1,1.5c0.4,0.4,0.8,1.1,1.1,1.5
				c0,0.4,0.4,0.8,0.4,1.1c1.5,2.7,2.3,5.7,2.3,9.1C288.7-52.7,286.8-48.5,283.7-45.1 M296.6-90.3c-1.1,0-9.5,0-9.5,0v3.4
				c-5.3-2.7-11-4.2-17.9-4.2c-20.1,0-35,13.7-35,33.4s15.2,33.4,35,33.4c6.5,0,12.5-1.5,17.9-4.2c-0.8,11.8-10.3,14.8-17.9,14.8
				c-8,0-15.2-2.3-20.1-8l-9.5,14.1c8.4,7.2,19.4,11,30.4,11c16,0,34.6-9.1,34.6-33.8v-52.4C304.2-87.3,300.4-90.3,296.6-90.3"/>
		</g>
	</g>
	
		<path id="path8" inkscape:connector-curvature="0" inkscape:export-filename="C:\Users\suitedoalex\sites\ingresso-com-logo-4.png" inkscape:export-xdpi="73.567451" inkscape:export-ydpi="73.567451" class="st2" d="
		M196.3,109.8c0,18-14.1,32.1-32.1,32.1c-18,0-32.1-14.9-32.1-32.1c0-18,14.1-32.1,32.1-32.1C182.2,76.9,196.3,91.8,196.3,109.8"/>
	
		<path id="path10" inkscape:connector-curvature="0" inkscape:export-filename="C:\Users\suitedoalex\sites\ingresso-com-logo-4.png" inkscape:export-xdpi="73.567451" inkscape:export-ydpi="73.567451" class="st2" d="
		M193.9,156.1h-58.8v123c0,9.4,6.3,16.5,14.9,16.5h43.9V156.1z"/>
</g>
</svg>
